<svg xmlns="http://www.w3.org/2000/svg" xmlns:xlink="http://www.w3.org/1999/xlink" width="114" height="64" fill="none"><path d="M43.707 12.939c0 1.229.481 2.408 1.338 3.277a4.54 4.54 0 0 0 3.231 1.357c.904 0 1.787-.272 2.539-.781a4.62 4.62 0 0 0 1.683-2.08c.346-.847.436-1.779.26-2.677a4.66 4.66 0 0 0-1.251-2.373 4.55 4.55 0 0 0-2.34-1.268 4.51 4.51 0 0 0-2.64.264c-.835.351-1.549.945-2.051 1.707a4.68 4.68 0 0 0-.77 2.575zM55.184 2.606c0 .496.194.971.54 1.322a1.83 1.83 0 0 0 2.608 0c.346-.351.54-.826.54-1.322s-.194-.971-.54-1.322a1.83 1.83 0 0 0-2.608 0c-.346.351-.54.826-.54 1.322z" fill-rule="evenodd" fill="#8a15b3"/><g fill="#fff"><path d="M61.234 36.014h1.578a5.12 5.12 0 0 1 1.847.24c.373.154.688.426.897.776a2.42 2.42 0 0 1 .327 1.285 2.18 2.18 0 0 1-.428 1.38c-.297.374-.703.642-1.161.765a6.55 6.55 0 0 1-1.568.124v3.357h-1.488l-.004-7.927zm1.488 3.099h.473a2.54 2.54 0 0 0 .776-.081.69.69 0 0 0 .343-.268.79.79 0 0 0 .125-.452.73.73 0 0 0-.082-.386c-.062-.118-.155-.217-.269-.285a1.98 1.98 0 0 0-.946-.157h-.421l.001 1.627zm6.995-3.099h1.509l3.007 7.927h-1.546l-.612-1.633h-3.189l-.636 1.633h-1.547l3.014-7.927zm.763 2.101l-1.048 2.722h2.093l-1.044-2.722zm5.008-2.101h1.577a5.15 5.15 0 0 1 1.845.234 1.9 1.9 0 0 1 .884.778 2.41 2.41 0 0 1 .334 1.288 2.22 2.22 0 0 1-.369 1.307c-.281.375-.67.653-1.113.794l1.852 3.524h-1.627l-1.757-3.357h-.137v3.357h-1.488l-.001-7.926zm1.488 3.099h.467c.337.03.675-.035.978-.189a.7.7 0 0 0 .213-.279.73.73 0 0 0 .054-.349.77.77 0 0 0-.133-.451.74.74 0 0 0-.355-.276c-.266-.07-.542-.098-.816-.084h-.408v1.627zm3.954-3.099h4.321v1.487h-1.43v6.439h-1.509v-6.439H80.93v-1.487zm-19.59 9.929h1.577a5.15 5.15 0 0 1 1.845.234 1.9 1.9 0 0 1 .884.778 2.41 2.41 0 0 1 .335 1.288 2.22 2.22 0 0 1-.369 1.307c-.281.375-.67.653-1.113.794l1.852 3.524h-1.627l-1.758-3.357h-.137v3.357h-1.488l-.001-7.926zm1.488 3.099h.466c.337.03.675-.035.978-.189.093-.073.166-.169.213-.279s.065-.229.054-.348c.003-.161-.043-.318-.132-.451a.74.74 0 0 0-.355-.276c-.266-.07-.542-.098-.816-.084h-.408v1.626z"/><use xlink:href="#B"/><path d="M77.312 47.019l-1.102.986a1.58 1.58 0 0 0-.493-.555 1.55 1.55 0 0 0-.689-.264c-.174-.007-.344.049-.479.159a.46.46 0 0 0-.134.158c-.032.062-.05.131-.052.201a.62.62 0 0 0 .134.377c.339.366.703.706 1.091 1.018l1.033.91c.263.255.481.555.642.886a2.24 2.24 0 0 1 .189.924c.008.301-.047.6-.161.878s-.286.528-.503.733c-.473.435-1.096.664-1.734.636-.515.012-1.022-.132-1.455-.414a3.27 3.27 0 0 1-1.061-1.304l1.251-.765c.376.701.808 1.051 1.296 1.051.235.008.464-.073.644-.226a.67.67 0 0 0 .19-.231.68.68 0 0 0 .072-.291c-.007-.197-.077-.386-.199-.539-.26-.305-.551-.581-.868-.825-.619-.467-1.174-1.015-1.651-1.63a2.09 2.09 0 0 1-.373-1.145c-.002-.267.052-.532.159-.776a1.87 1.87 0 0 1 .461-.639c.413-.394.963-.606 1.53-.59.388-.001.77.094 1.114.275a4.07 4.07 0 0 1 1.152 1.004z"/><use xlink:href="#B" x="11.32"/><path d="M86.916 45.943h1.509l3.006 7.927h-1.546l-.611-1.632h-3.189l-.636 1.632h-1.547l3.014-7.927zm.763 2.101l-1.049 2.722h2.093l-1.044-2.722zm5.005-2.101h1.577a5.15 5.15 0 0 1 1.845.234 1.9 1.9 0 0 1 .884.778 2.41 2.41 0 0 1 .335 1.288 2.22 2.22 0 0 1-.369 1.307c-.281.375-.67.653-1.113.794l1.852 3.524h-1.627l-1.757-3.357h-.137v3.357h-1.488l-.002-7.926zm1.488 3.099h.466a1.8 1.8 0 0 0 .978-.189c.093-.073.166-.169.213-.279s.065-.229.054-.348c.003-.161-.043-.318-.133-.451a.74.74 0 0 0-.355-.276c-.266-.07-.542-.098-.816-.084h-.408v1.626zm11.909-1.707l-1.04 1.011c-.297-.35-.664-.633-1.076-.829a3.18 3.18 0 0 0-1.316-.309 2.59 2.59 0 0 0-1.022.195 2.63 2.63 0 0 0-.866.583c-.248.251-.443.55-.574.878a2.68 2.68 0 0 0-.192 1.036 2.86 2.86 0 0 0 .34 1.408 2.46 2.46 0 0 0 .961.965 2.76 2.76 0 0 0 1.381.351c.407.005.811-.079 1.184-.246a4.25 4.25 0 0 0 1.178-.892l1.008 1.067c-.469.494-1.024.897-1.636 1.189a4.41 4.41 0 0 1-1.758.332 4 4 0 0 1-1.611-.275 4.04 4.04 0 0 1-1.373-.898 4.06 4.06 0 0 1-.888-1.38 4.11 4.11 0 0 1-.273-1.624c-.013-.738.169-1.466.529-2.107.363-.624.886-1.137 1.515-1.482a4.22 4.22 0 0 1 2.123-.56 4.45 4.45 0 0 1 1.874.419c.588.275 1.111.675 1.532 1.172l.001-.004zm1.298-1.392h1.509v2.991h2.609v-2.991h1.504v7.927h-1.504v-3.476h-2.609v3.476h-1.509v-7.927zm-46.246 9.928h1.477v7.927h-1.477v-7.927zm3.976 0h1.427l3.345 5.216v-5.216h1.488v7.927h-1.431l-3.341-5.2v5.2h-1.488v-7.927zm12.96 1.078l-1.102.986a1.58 1.58 0 0 0-.493-.555 1.55 1.55 0 0 0-.689-.264.71.71 0 0 0-.479.159c-.056.042-.102.096-.134.158a.47.47 0 0 0-.053.201.62.62 0 0 0 .134.377 10.25 10.25 0 0 0 1.096 1.019l1.033.91a3.15 3.15 0 0 1 .642.886 2.24 2.24 0 0 1 .189.924 2.15 2.15 0 0 1-.161.878c-.115.278-.286.528-.503.733-.473.435-1.096.664-1.734.636a2.55 2.55 0 0 1-1.455-.414 3.27 3.27 0 0 1-1.062-1.304l1.251-.765c.376.701.808 1.051 1.296 1.051a.95.95 0 0 0 .644-.226.67.67 0 0 0 .189-.231.68.68 0 0 0 .072-.291.91.91 0 0 0-.199-.539 5.74 5.74 0 0 0-.868-.825c-.619-.467-1.174-1.015-1.651-1.63-.234-.336-.364-.734-.373-1.145a1.9 1.9 0 0 1 .159-.776 1.87 1.87 0 0 1 .461-.639 2.13 2.13 0 0 1 1.53-.59 2.39 2.39 0 0 1 1.114.275 4.08 4.08 0 0 1 1.147 1.004zm1.603-1.078h4.321v1.488h-1.424v6.439H81.06v-6.439h-1.387v-1.488zm6.051 0H87.2v7.927h-1.477v-7.927zm3.195 0h4.321v1.488h-1.424v6.439h-1.509v-6.439h-1.387v-1.488zm6.107 0h1.495v5.126a2.7 2.7 0 0 0 .115.937.93.93 0 0 0 .377.439 1.18 1.18 0 0 0 .635.164 1.22 1.22 0 0 0 .678-.183.96.96 0 0 0 .394-.466c.092-.352.129-.716.109-1.079v-4.937h1.495V60.6a6.94 6.94 0 0 1-.133 1.659 2.35 2.35 0 0 1-.507.895 2.36 2.36 0 0 1-.863.639 2.9 2.9 0 0 1-1.137.207 2.72 2.72 0 0 1-1.48-.396 2.29 2.29 0 0 1-.897-.991 5.3 5.3 0 0 1-.271-2.012l-.008-4.728zm7.065 0h4.32v1.488h-1.424v6.439h-1.509v-6.439h-1.387v-1.488z"/><use xlink:href="#B" x="40.695" y="9.928"/><g fill-rule="evenodd"><path d="M48.042 28.752h2.117c.073-1.307-.648-4.796.058-6.252l.04-.05c.172-.225.279-.495.308-.779s-.02-.57-.142-.827-.312-.474-.55-.627a1.5 1.5 0 0 0-.793-.24c-.281-.004-.558.072-.799.219s-.437.359-.566.612-.186.538-.164.823a1.55 1.55 0 0 0 .288.787c.677 1.062.466 5.227.202 6.334z"/><path d="M48.039 28.752a15.68 15.68 0 0 1-2.562 6.066 15.43 15.43 0 0 1-4.811 4.444 15.2 15.2 0 0 1-6.195 2.023 15.15 15.15 0 0 1-6.465-.762c-.017.193-.022.386-.015.579.09 1.295.298 2.578.623 3.834-3.436-6.266-5.568-20.617-.018-26.262.874-.875 1.925-1.546 3.08-1.968s2.387-.584 3.61-.476c7.515.736 7.883 12.572.199 12.926-2.667.123-5.603-1.516-7.143-5.679-.59 6.14 3.53 10.454 8.147 10.454 1.766.027 3.498-.49 4.967-1.482a8.82 8.82 0 0 0 3.263-4.076c3.232-7.461-2.634-16.298-10.297-15.848-11.584.679-14.742 12.381-14.045 22.992-6.08-11.372-.338-25.534 12.841-25.52a15.43 15.43 0 0 1 5.124.874C37.368 9.759 6.219-2.849.029 42.027a1.97 1.97 0 0 0 .039.854c.075.278.211.536.396.754a1.92 1.92 0 0 0 .677.509c.26.117.543.173.827.166l1.66.006a.08.08 0 0 1 .023 0 1.89 1.89 0 0 1 .714.263 1.92 1.92 0 0 1 .556.524c.149.211.254.45.31.703a1.96 1.96 0 0 1 .015.77c-.118 2.527-.077 4.238-.063 6.764.012 2.173 1.261 3.056 3.637 3.072l5.932.092c1.848.109 2.149.917 2.184 2.77.022 1.193.03 2.387-.008 3.579-.024.774.216 1.142 1.044 1.138l18.457-.044c.78 0 1.083-.303 1.084-1.112v-3.923a13.84 13.84 0 0 1 .286-2.57c.588-2.673 3.618-6.266 3.765-6.422 1.956-2.101 3.689-4.404 5.17-6.872 2.714-4.284 3.482-9.304 3.427-14.3l-2.123.004z"/></g></g><path d="M49.527 6.693c1.823 0 3.3-1.498 3.3-3.346S51.349 0 49.527 0s-3.3 1.498-3.3 3.346 1.477 3.346 3.3 3.346z" fill="#8a15b3"/><defs ><path id="B" d="M67.559 45.943h4.267v1.477h-2.791v1.432h2.791v1.449h-2.791v2.088h2.791v1.482h-4.267v-7.928z"/></defs></svg>