<svg xmlns="http://www.w3.org/2000/svg" width="20" height="20" fill="none"><path d="M6.667 2.5A4.17 4.17 0 0 0 2.5 6.667v6.667A4.17 4.17 0 0 0 6.667 17.5h6.667a4.17 4.17 0 0 0 4.167-4.167V6.667A4.17 4.17 0 0 0 13.333 2.5H6.667zM15 4.167c.46 0 .833.373.833.833s-.373.833-.833.833-.833-.373-.833-.833.373-.833.833-.833zm-5 1.667A4.17 4.17 0 0 1 14.167 10 4.17 4.17 0 0 1 10 14.167 4.17 4.17 0 0 1 5.833 10 4.17 4.17 0 0 1 10 5.833zM10 7.5A2.5 2.5 0 0 0 7.5 10a2.5 2.5 0 0 0 2.5 2.5 2.5 2.5 0 0 0 2.5-2.5A2.5 2.5 0 0 0 10 7.5z" fill="#fff"/></svg>