<svg xmlns="http://www.w3.org/2000/svg" width="20" height="20" fill="none"><path d="M15.833 2.5H4.167c-.921 0-1.667.746-1.667 1.667v11.667c0 .921.746 1.667 1.667 1.667h11.667c.921 0 1.667-.746 1.667-1.667V4.167c0-.921-.746-1.667-1.667-1.667zM7.5 14.167H5.398V8.333H7.5v5.833zM6.412 7.264c-.643 0-1.072-.428-1.072-1s.428-1 1.143-1c.643 0 1.072.428 1.072 1s-.428 1-1.142 1zM15 14.167h-2.035v-3.188c0-.882-.543-1.085-.746-1.085s-.882.136-.882 1.085v3.188H9.235V8.333h2.103v.814c.271-.475.813-.814 1.831-.814S15 9.148 15 10.978v3.188z" fill="#fff"/></svg>