<svg xmlns="http://www.w3.org/2000/svg" width="20" height="20" fill="none"><path d="M16.919 2.487c-.241.01-.462.08-.656.156l-1.849.771-3.833 1.61L2.76 8.315c-.057.024-.29.095-.547.291a1.47 1.47 0 0 0-.544 1.091c0 .377.188.76.415.98s.457.322.649.399v-.002l3.053 1.221 1.035 3.123h-.002c.118.374.234.618.394.822.08.102.176.194.293.267.045.028.095.05.145.07.007.003.014.004.021.006l-.02-.005c.015.006.028.014.042.019.024.008.041.008.073.015.114.035.228.059.334.059.453 0 .731-.246.731-.246l.018-.013 1.956-1.655 2.396 2.217c.044.062.386.526 1.18.526.473 0 .848-.234 1.087-.48s.389-.497.456-.838l.002-.002 2.347-11.792-.005.02c.071-.319.092-.627.008-.941a1.35 1.35 0 0 0-.586-.781c-.274-.161-.534-.209-.775-.199zm-.329 1.825l-2.272 11.424-3.46-3.201-2.339 1.977.648-2.533 4.738-4.787c.217-.211.262-.285.262-.358 0-.098-.05-.168-.166-.168-.104 0-.246.1-.321.146l-7.008 4.043-2.896-1.16 7.451-3.135 3.831-1.61 1.532-.64zm-2.297 11.543h.002l-.002.005z" fill="#fff"/></svg>