<svg xmlns="http://www.w3.org/2000/svg" width="20" height="20" fill="none"><path d="M18.333 3.333c-.65.386-1.954.912-2.721 1.063l-.062.019c-.678-.668-1.606-1.082-2.633-1.082a3.75 3.75 0 0 0-3.75 3.75v.417c-2.794 0-4.921-1.463-6.446-3.333-.166.417-.238 1.075-.238 1.693 0 1.168.912 2.314 2.333 3.025-.262.067-.55.116-.85.116-.484 0-.997-.127-1.466-.514v.043c0 1.632 1.732 2.743 3.272 3.052-.312.184-.942.203-1.25.203a12.09 12.09 0 0 1-1.188-.138c.428 1.338 1.973 2.089 3.446 2.116-1.152.903-1.951 1.238-4.309 1.238h-.803c1.49.955 3.388 1.667 5.289 1.667 6.192 0 9.711-4.719 9.711-9.168l-.004-.372c0-.015.004-.029.004-.044 0-.022-.007-.044-.007-.067l-.008-.274c.658-.475 1.229-1.067 1.681-1.743-.604.268-1.253.448-1.933.53.695-.417 1.683-1.41 1.933-2.197z" fill="#fff"/></svg>