<svg xmlns="http://www.w3.org/2000/svg" width="66" height="70" fill="none"><path d="M48.322 14.155a5.09 5.09 0 0 0 1.472 3.583c.942.95 2.22 1.484 3.553 1.484a4.99 4.99 0 0 0 2.791-.854c.826-.557 1.47-1.348 1.851-2.274a5.1 5.1 0 0 0 .286-2.928 5.08 5.08 0 0 0-1.375-2.594 5.01 5.01 0 0 0-2.573-1.387c-.975-.196-1.985-.095-2.903.288a5.03 5.03 0 0 0-2.255 1.866 5.1 5.1 0 0 0-.847 2.815zM60.946 2.85c0 .542.214 1.062.594 1.446a2.02 2.02 0 0 0 2.868 0c.38-.384.594-.904.594-1.446s-.214-1.062-.594-1.446a2.02 2.02 0 0 0-2.868 0c-.38.383-.594.904-.594 1.446zm-7.856 28.6a17.1 17.1 0 0 1-2.819 6.635c-1.399 1.983-3.204 3.641-5.292 4.861a16.79 16.79 0 0 1-6.814 2.213 16.75 16.75 0 0 1-7.111-.833c-.018.211-.024.422-.017.633.099 1.416.328 2.82.685 4.193-3.779-6.853-6.124-22.545-.019-28.725a9.31 9.31 0 0 1 3.387-2.152c1.27-.462 2.625-.639 3.97-.521 8.265.805 8.67 13.75.219 14.139-2.934.135-6.163-1.66-7.856-6.211-.649 6.716 3.883 11.434 8.96 11.434 4.462 0 7.54-2.606 9.052-6.076 3.553-8.16-2.897-17.826-11.325-17.334-12.741.743-16.213 13.542-15.447 25.147-6.691-12.438-.372-27.928 14.123-27.913a17.06 17.06 0 0 1 5.635.956C41.347 10.683 7.089-3.11.282 45.973a2.15 2.15 0 0 0 .043.934 2.14 2.14 0 0 0 .436.825 2.11 2.11 0 0 0 .745.557 2.08 2.08 0 0 0 .91.181l1.826.006c.008 0 .017.001.025.004 1.315.414 1.821 1.05 1.754 2.472-.13 2.759-.084 4.635-.069 7.399.013 2.377 1.387 3.343 4 3.36l6.524.101c2.032.12 2.363 1.003 2.402 3.03.024 1.303.033 2.611-.009 3.915-.027.847.238 1.249 1.149 1.244l20.299-.049c.858 0 1.191-.333 1.193-1.218l-.002-4.291a15.09 15.09 0 0 1 .314-2.811c.646-2.924 3.98-6.859 4.142-7.024 2.197-2.232 3.984-4.847 5.686-7.517 2.984-4.686 3.83-10.176 3.768-15.641H53.09z" fill-rule="evenodd" fill="#fff"/><path d="M54.727 7.321c2.005 0 3.63-1.639 3.63-3.661S56.732 0 54.727 0s-3.63 1.639-3.63 3.661 1.625 3.661 3.63 3.661z" fill="#fff"/><path fill-rule="evenodd" d="M53.091 31.45h2.328c.08-1.429-.713-5.245.064-6.838l.043-.054.003-.003c.189-.247.307-.542.339-.852a1.69 1.69 0 0 0-.156-.904c-.134-.281-.344-.519-.605-.686s-.563-.259-.872-.263-.614.079-.879.239a1.67 1.67 0 0 0-.623.67 1.69 1.69 0 0 0-.18.9c.024.311.133.609.316.861.743 1.164.515 5.718.221 6.931z" fill="#fff"/></svg>