<svg xmlns="http://www.w3.org/2000/svg" xmlns:xlink="http://www.w3.org/1999/xlink" width="512" height="512" shape-rendering="geometricPrecision" image-rendering="optimizeQuality" fill-rule="evenodd" fill="#fff"><path d="M243.5 25.5c93.349-.927 164.183 38.073 212.5 117 34.474 65.165 38.474 132.165 12 201-33.834 76.027-91.668 122.193-173.5 138.5-92.892 12.278-168.058-18.222-225.5-91.5-45.899-67.859-55.233-140.526-28-218C71.435 99.403 124.935 52.57 201.5 32c13.998-3.162 27.998-5.329 42-6.5zm1 33c85.505-.241 148.338 37.093 188.5 112 31.683 73.515 24.016 142.515-23 207-51.605 60.319-116.772 83.819-195.5 70.5C134.009 427.509 83.509 377.009 63 296.5c-12.304-67.395 4.363-126.395 50-177 36.249-36.587 80.082-56.921 131.5-61z" opacity=".964"/><use xlink:href="#B" opacity=".991"/><use xlink:href="#B" y="64" opacity=".991"/><path d="M249.5 303.5l97 .5c10.59 5.436 13.424 13.603 8.5 24.5-2.264 2.933-5.098 5.1-8.5 6.5-32.333.667-64.667.667-97 0-6.987-2.807-10.32-7.973-10-15.5-.198-7.615 3.135-12.949 10-16z" opacity=".985"/><defs ><path id="B" d="M164.5 175.5l182 .5c10.59 5.436 13.424 13.603 8.5 24.5-2.264 2.933-5.098 5.1-8.5 6.5h-182c-10.59-5.436-13.424-13.603-8.5-24.5 2.464-2.981 5.297-5.314 8.5-7z"/></defs></svg>