<svg width="65" height="70" viewBox="0 0 65 70" fill="none" xmlns="http://www.w3.org/2000/svg">
<g id="Group 3644">
<path id="Path 51" fill-rule="evenodd" clip-rule="evenodd" d="M48.2031 14.0073C48.2031 15.3372 48.7314 16.6126 49.6717 17.5529C50.6121 18.4932 51.8875 19.0215 53.2173 19.0215C54.209 19.0215 55.1785 18.7274 56.003 18.1765C56.8276 17.6255 57.4703 16.8424 57.8498 15.9262C58.2293 15.01 58.3286 14.0018 58.1351 13.0291C57.9417 12.0565 57.4641 11.163 56.7629 10.4618C56.0616 9.76054 55.1682 9.28299 54.1955 9.08951C53.2229 8.89604 52.2147 8.99534 51.2985 9.37485C50.3822 9.75436 49.5991 10.397 49.0482 11.2216C48.4972 12.0462 48.2031 13.0156 48.2031 14.0073Z" fill="#8A15B2"/>
<path id="Path 52" fill-rule="evenodd" clip-rule="evenodd" d="M60.8008 2.82045C60.8008 3.35714 61.014 3.87184 61.3935 4.25134C61.773 4.63083 62.2877 4.84403 62.8243 4.84403C63.361 4.84403 63.8758 4.63083 64.2552 4.25134C64.6347 3.87184 64.8479 3.35714 64.8479 2.82045C64.8479 2.28377 64.6347 1.76906 64.2552 1.38957C63.8758 1.01007 63.361 0.796875 62.8243 0.796875C62.2877 0.796875 61.773 1.01007 61.3935 1.38957C61.014 1.76906 60.8008 2.28377 60.8008 2.82045Z" fill="#8A15B2"/>
<path id="Path 75" fill-rule="evenodd" clip-rule="evenodd" d="M52.9612 31.1217C52.5034 33.4864 51.544 35.7255 50.1476 37.688C48.7512 39.6504 46.9502 41.2907 44.8662 42.4982C42.7821 43.7058 40.4634 44.4524 38.0664 44.6879C35.6693 44.9234 33.2496 44.6423 30.9705 43.8635C30.9521 44.0717 30.9465 44.2809 30.9536 44.4899C31.0519 45.8913 31.2807 47.2805 31.637 48.6395C27.866 41.8581 25.5254 26.3296 31.6176 20.2145C32.5768 19.268 33.7301 18.5413 34.9979 18.0846C36.2656 17.6279 37.6175 17.4521 38.9598 17.5695C47.2078 18.366 47.6118 31.1762 39.1783 31.5605C36.2504 31.6937 33.0284 29.9176 31.3383 25.4142C30.6911 32.0597 35.2128 36.729 40.2796 36.729C44.7319 36.729 47.8038 34.1503 49.3127 30.7166C52.8584 22.6417 46.4216 13.0768 38.0111 13.5635C25.2965 14.2992 21.8314 26.9643 22.5961 38.4481C15.9186 26.1394 22.225 10.8115 36.6898 10.8261C38.6039 10.8256 40.5045 11.1454 42.3129 11.7724C41.2427 10.5719 7.05531 -3.0778 0.262525 45.4934C0.208257 45.8009 0.223032 46.1166 0.305781 46.4176C0.38853 46.7187 0.537185 46.9976 0.74098 47.2341C0.944775 47.4706 1.19861 47.6589 1.48412 47.7852C1.76962 47.9116 2.07965 47.9729 2.39176 47.9647L4.21406 47.9708C4.22244 47.9709 4.23076 47.9722 4.23877 47.9747C5.5507 48.3848 6.0557 49.0134 5.98944 50.4206C5.85978 53.1511 5.90563 55.0067 5.92103 57.742C5.93392 60.094 7.30494 61.0499 9.91268 61.0667L16.4232 61.1667C18.4511 61.2852 18.7817 62.1591 18.82 64.1648C18.8444 65.4541 18.8526 66.7485 18.8114 68.0386C18.7846 68.8763 19.0485 69.2746 19.9575 69.2699C26.7553 69.2341 33.417 69.223 40.2145 69.2216C41.0708 69.2216 41.4032 68.8921 41.405 68.0167C41.4067 67.2026 41.4003 64.4839 41.4028 63.7701C41.4192 62.835 41.5242 61.9035 41.7166 60.9883C42.3612 58.0951 45.6878 54.2009 45.8497 54.0376C48.0427 51.8288 49.8252 49.2408 51.5239 46.5994C54.502 41.9624 55.3462 36.5295 55.2846 31.1217H52.9612Z" fill="white"/>
<path id="Ellipse 25" d="M54.595 7.24476C56.5956 7.24476 58.2174 5.62297 58.2174 3.62238C58.2174 1.6218 56.5956 0 54.595 0C52.5945 0 50.9727 1.6218 50.9727 3.62238C50.9727 5.62297 52.5945 7.24476 54.595 7.24476Z" fill="#8A15B2"/>
<path id="Path 74" fill-rule="evenodd" clip-rule="evenodd" d="M52.9628 31.1215H55.2862C55.366 29.7071 54.5749 25.9311 55.3499 24.3545C55.3646 24.337 55.3793 24.3187 55.3933 24.3015L55.3958 24.2986C55.5848 24.0546 55.702 23.7627 55.7343 23.4557C55.7666 23.1487 55.7127 22.8387 55.5787 22.5607C55.4446 22.2826 55.2357 22.0474 54.9754 21.8815C54.7151 21.7155 54.4137 21.6254 54.1051 21.6212C53.7964 21.6171 53.4927 21.699 53.228 21.8579C52.9633 22.0167 52.7482 22.2462 52.6066 22.5206C52.4651 22.7949 52.4029 23.1033 52.4269 23.411C52.4509 23.7188 52.5602 24.0137 52.7426 24.2628C53.4839 25.4143 53.2561 29.9213 52.9628 31.1215Z" fill="white"/>
</g>
</svg>
