<svg xmlns="http://www.w3.org/2000/svg" width="24" height="25" fill="none"><path d="M15 23.25H9c-1.32 0-2.42-.13-3.35-.41-.34-.1-.56-.43-.54-.78.25-2.99 3.28-5.34 6.89-5.34s6.63 2.34 6.89 5.34c.03.36-.19.68-.54.78-.93.28-2.03.41-3.35.41zm-8.28-1.69c.66.13 1.41.19 2.28.19h6c.87 0 1.62-.06 2.28-.19-.53-1.92-2.72-3.34-5.28-3.34s-4.75 1.42-5.28 3.34z" fill="#292d32"/><path d="M15 2.5H9c-5 0-7 2-7 7v6c0 3.78 1.14 5.85 3.86 6.62.22-2.6 2.89-4.65 6.14-4.65s5.92 2.05 6.14 4.65c2.72-.77 3.86-2.84 3.86-6.62v-6c0-5-2-7-7-7zm-3 12.17c-1.98 0-3.58-1.61-3.58-3.59S10.02 7.5 12 7.5s3.58 1.6 3.58 3.58-1.6 3.59-3.58 3.59z" stroke="#292d32" stroke-width="1.5" stroke-linejoin="round"/><path d="M12 15.42c-2.39 0-4.33-1.95-4.33-4.34S9.61 6.75 12 6.75s4.33 1.94 4.33 4.33-1.94 4.34-4.33 4.34zm0-7.17c-1.56 0-2.83 1.27-2.83 2.83 0 1.57 1.27 2.84 2.83 2.84s2.83-1.27 2.83-2.84c0-1.56-1.27-2.83-2.83-2.83z" fill="#292d32"/></svg>